<svg width="435.267529296875px" height="122.021240234375px" xmlns="http://www.w3.org/2000/svg" viewBox="32.366235351562494 13.9893798828125 435.267529296875 122.021240234375" style="background: rgba(0, 0, 0, 0);" preserveAspectRatio="xMidYMid"><defs><linearGradient id="editing-shiny-gradient" x1="0.04322727117869957" x2="0.9567727288213004" y1="0.2966316784620999" y2="0.7033683215379001" gradientUnits="objectBoundingBox"><stop offset="0.0" stop-color="#ffb200"></stop><stop offset="0.5" stop-color="#e10057"></stop><stop offset="1.0" stop-color="#5A1A80"></stop></linearGradient><linearGradient id="editing-shiny-gradient2" x1="0" x2="0" y1="0" y2="1"><stop offset="0.2" stop-color="#fff" stop-opacity="0.8"></stop><stop offset="0.8" stop-color="#fff" stop-opacity="0"></stop></linearGradient><filter id="editing-shiny2" x="-100%" y="-100%" width="300%" height="300%"><feMorphology operator="erode" radius="2"></feMorphology></filter><filter id="editing-shiny" x="-100%" y="-100%" width="300%" height="300%"><feFlood flood-color="#fff" result="flood"></feFlood><feConvolveMatrix in="SourceGraphic" result="conv" order="8,8" divisor="1" kernelMatrix="0 0 0 0 0 0 0 0 0 0 0 1 1 0 0 0 0 0 0 1 1 0 0 0 0 0 1 0 0 1 0 0 0 0 1 0 0 1 0 0 0 1 0 0 0 0 1 0 0 1 1 0 0 1 1 0 0 0 0 1 1 0 0 0 "></feConvolveMatrix><feOffset dx="0" dy="4" in="conv" result="offset"></feOffset><feComposite operator="in" in="flood" in2="offset" result="comp"></feComposite><feGaussianBlur in="offset" stdDeviation="3" result="shadow"></feGaussianBlur><feColorMatrix in="shadow" type="matrix" values="0.7 0 0 0 0  0 0.7 0 0 0  0 0 0.7 0 0  0 0 0 0.3 0" result="dark-shadow"></feColorMatrix><feOffset dx="0" dy="4" in="dark-shadow" result="offset-shadow"></feOffset><feOffset dx="0" dy="2" in="conv" result="offset-2"></feOffset><feComposite operator="out" in="offset" in2="offset-2" result="edge-diff"></feComposite><feGaussianBlur in="edge-diff" stdDeviation="1" result="edge-blur"></feGaussianBlur><feColorMatrix in="edge-blur" result="edge-shadow" type="matrix" values="0 0 0 0 0  0 0 0 0 0  0 0 0 0 0  0 0 0 0.5 0"></feColorMatrix><feComposite operator="in" in="edge-shadow" in2="offset" result="edge-shadow-in"></feComposite><feOffset dx="0" dy="1" in="edge-shadow-in" result="edge-shadow-final"></feOffset><feMerge result="out"><feMergeNode in="offset-shadow"></feMergeNode><feMergeNode in="comp"></feMergeNode><feMergeNode in="edge-shadow-final"></feMergeNode><feMergeNode in="SourceGraphic"></feMergeNode></feMerge></filter></defs><g filter="url(#editing-shiny)"><g transform="translate(97.71500611305237, 102.69281196594238)"><path d="M42.62-26.56L42.62-26.56L42.62-26.56Q42.62 0.70 13.06 0.70L13.06 0.70L13.06 0.70Q8.32 0.70 0.51-0.45L0.51-0.45L7.68-38.27L7.68-38.27Q8.19-40.83 8.51-42.30L8.51-42.30L8.51-42.30Q18.24-43.01 22.56-43.01L22.56-43.01L22.56-43.01Q26.88-43.01 30.85-42.11L30.85-42.11L30.85-42.11Q34.82-41.22 37.44-39.23L37.44-39.23L37.44-39.23Q42.62-35.33 42.62-26.56ZM29.44-28.93L29.44-28.93L29.44-28.93Q29.44-38.46 22.59-38.46L22.59-38.46L21.95-38.46L21.95-38.46Q21.63-38.46 21.31-38.40L21.31-38.40L14.72-4.03L14.72-4.03Q14.98-3.90 15.23-3.90L15.23-3.90L15.74-3.90L15.74-3.90Q18.11-3.90 20.58-5.38L20.58-5.38L20.58-5.38Q23.04-6.85 24.96-9.86L24.96-9.86L24.96-9.86Q29.44-16.83 29.44-28.93ZM65.02-22.46L65.02-22.46L65.02-22.46Q65.92-24.83 65.92-26.88L65.92-26.88L65.92-26.88Q65.92-30.66 62.85-30.66L62.85-30.66L62.85-30.66Q61.25-30.66 59.94-29.22L59.94-29.22L59.94-29.22Q58.62-27.78 58.62-25.98L58.62-25.98L58.62-25.98Q58.62-24.70 59.65-23.68L59.65-23.68L59.65-23.68Q61.12-22.27 64.90-19.97L64.90-19.97L64.90-19.97Q68.67-17.66 70.11-15.78L70.11-15.78L70.11-15.78Q71.55-13.89 71.55-11.30L71.55-11.30L71.55-11.30Q71.55-8.70 70.30-6.34L70.30-6.34L70.30-6.34Q69.06-3.97 66.82-2.30L66.82-2.30L66.82-2.30Q62.02 1.28 54.34 1.28L54.34 1.28L54.34 1.28Q50.18 1.28 46.98-0.90L46.98-0.90L46.98-0.90Q43.78-3.01 43.78-5.50L43.78-5.50L43.78-5.50Q43.78-8 45.60-9.47L45.60-9.47L45.60-9.47Q47.42-10.94 50.11-10.94L50.11-10.94L50.11-10.94Q52.80-10.94 54.46-9.92L54.46-9.92L54.46-9.92Q53.63-7.81 53.63-6.40L53.63-6.40L53.63-6.40Q53.63-2.18 57.22-2.18L57.22-2.18L57.22-2.18Q58.75-2.18 59.78-3.14L59.78-3.14L59.78-3.14Q60.80-4.10 60.80-5.76L60.80-5.76L60.80-5.76Q60.80-9.02 55.30-12.48L55.30-12.48L55.30-12.48Q50.82-15.42 49.79-16.58L49.79-16.58L49.79-16.58Q48.06-18.62 48.06-21.18L48.06-21.18L48.06-21.18Q48.06-23.74 49.28-26.18L49.28-26.18L49.28-26.18Q50.50-28.61 52.74-30.34L52.74-30.34L52.74-30.34Q57.41-33.92 65.54-33.92L65.54-33.92L65.54-33.92Q69.70-33.92 72.16-32.26L72.16-32.26L72.16-32.26Q74.62-30.59 74.62-27.78L74.62-27.78L74.62-27.78Q74.62-24.96 72.93-23.36L72.93-23.36L72.93-23.36Q71.23-21.76 68.16-21.76L68.16-21.76L68.16-21.76Q66.05-21.76 65.02-22.46ZM79.78-1.92L79.78-1.92L79.78-1.92Q78.27-3.58 77.60-6.21L77.60-6.21L77.60-6.21Q76.93-8.83 76.93-13.12L76.93-13.12L76.93-13.12Q76.93-17.41 78.40-21.31L78.40-21.31L78.40-21.31Q79.87-25.22 82.56-28.03L82.56-28.03L82.56-28.03Q88.06-33.92 97.15-33.92L97.15-33.92L97.15-33.92Q100.42-33.92 102.78-32.83L102.78-32.83L113.73-33.92L108.99-8.96L108.99-8.96Q108.80-8.19 108.80-6.78L108.80-6.78L108.80-6.78Q108.80-5.38 109.66-4.48L109.66-4.48L109.66-4.48Q110.53-3.58 111.81-3.46L111.81-3.46L111.81-3.46Q111.17-1.28 108.83 0L108.83 0L108.83 0Q106.50 1.28 103.87 1.28L103.87 1.28L103.87 1.28Q101.25 1.28 99.49 0.29L99.49 0.29L99.49 0.29Q97.73-0.70 97.22-2.37L97.22-2.37L97.22-2.37Q96.19-0.77 94.02 0.26L94.02 0.26L94.02 0.26Q91.84 1.28 88.93 1.28L88.93 1.28L88.93 1.28Q86.02 1.28 83.65 0.51L83.65 0.51L83.65 0.51Q81.28-0.26 79.78-1.92ZM93.28-27.90L93.28-27.90L93.28-27.90Q92.54-26.75 91.90-24.80L91.90-24.80L91.90-24.80Q91.26-22.85 90.21-17.63L90.21-17.63L90.21-17.63Q89.15-12.42 89.15-8.70L89.15-8.70L89.15-8.70Q89.15-4.99 89.73-3.90L89.73-3.90L89.73-3.90Q90.30-2.82 91.33-2.82L91.33-2.82L91.33-2.82Q93.38-2.82 94.88-4.77L94.88-4.77L94.88-4.77Q96.38-6.72 96.96-10.18L96.96-10.18L100.35-28.93L100.35-28.93Q99.01-30.08 97.44-30.08L97.44-30.08L97.44-30.08Q95.87-30.08 94.94-29.57L94.94-29.57L94.94-29.57Q94.02-29.06 93.28-27.90ZM137.54-7.23L137.54-7.23L137.54-7.23Q134.21-3.78 128.13-3.78L128.13-3.78L128.13-3.78Q120.51-3.78 118.91-9.34L118.91-9.34L118.91-9.34Q118.40-11.01 118.40-12.86L118.40-12.86L118.40-12.86Q118.40-14.72 118.78-16.64L118.78-16.64L121.79-32.64L134.78-33.92L131.26-15.30L131.26-15.30Q131.14-14.46 130.94-13.57L130.94-13.57L130.94-13.57Q130.75-12.67 130.75-11.74L130.75-11.74L130.75-11.74Q130.75-10.82 131.07-10.21L131.07-10.21L131.07-10.21Q131.39-9.60 131.84-9.22L131.84-9.22L131.84-9.22Q132.61-8.70 133.98-8.70L133.98-8.70L133.98-8.70Q135.36-8.70 136.54-10.37L136.54-10.37L136.54-10.37Q137.73-12.03 138.30-14.91L138.30-14.91L141.82-32.64L154.43-33.92L149.63-8.77L149.63-8.77Q147.26 3.52 142.40 8.38L142.40 8.38L142.40 8.38Q139.90 10.88 136.67 11.87L136.67 11.87L136.67 11.87Q133.44 12.86 129.28 12.86L129.28 12.86L129.28 12.86Q122.56 12.86 118.72 10.75L118.72 10.75L118.72 10.75Q114.88 8.64 114.88 5.12L114.88 5.12L114.88 5.12Q114.88 2.50 116.86 0.99L116.86 0.99L116.86 0.99Q118.85-0.51 121.92-0.51L121.92-0.51L121.92-0.51Q124.61-0.51 126.66 0.64L126.66 0.64L126.66 0.64Q127.87 1.34 128.45 2.24L128.45 2.24L128.45 2.24Q126.98 3.52 126.98 5.63L126.98 5.63L126.98 5.63Q126.98 8.45 129.54 8.45L129.54 8.45L129.54 8.45Q133.76 8.45 136.19-1.28L136.19-1.28L136.19-1.28Q136.90-4.16 137.54-7.23ZM177.28-2.69L177.28-2.69L177.28-2.69Q174.21 1.28 166.59 1.28L166.59 1.28L166.59 1.28Q162.62 1.28 159.74-1.12L159.74-1.12L159.74-1.12Q156.86-3.52 156.86-6.98L156.86-6.98L156.86-6.98Q156.86-8.90 157.06-9.86L157.06-9.86L161.34-32.64L174.34-33.92L169.66-9.22L169.66-9.22Q169.41-7.81 169.41-6.98L169.41-6.98L169.41-6.98Q169.41-3.26 171.65-3.26L171.65-3.26L171.65-3.26Q174.14-3.26 175.94-6.66L175.94-6.66L175.94-6.66Q176.51-7.74 176.77-9.15L176.77-9.15L181.31-32.64L193.92-33.92L189.18-8.96L189.18-8.96Q188.99-8 188.99-6.98L188.99-6.98L188.99-6.98Q188.99-5.95 189.57-4.83L189.57-4.83L189.57-4.83Q190.14-3.71 192-3.46L192-3.46L192-3.46Q191.62-1.92 190.27-0.90L190.27-0.90L190.27-0.90Q187.46 1.28 184.42 1.28L184.42 1.28L184.42 1.28Q181.38 1.28 179.58 0.19L179.58 0.19L179.58 0.19Q177.79-0.90 177.28-2.69ZM224.45 1.28L224.45 1.28L224.45 1.28Q216.70 1.28 216.70-4.74L216.70-4.74L216.70-4.74Q216.77-6.40 217.28-9.22L217.28-9.22L218.43-15.10L218.43-15.10Q220.16-23.42 220.16-25.28L220.16-25.28L220.16-25.28Q220.16-28.99 217.98-28.99L217.98-28.99L217.98-28.99Q214.34-28.99 212.42-19.46L212.42-19.46L208.64 0L195.78 1.28L202.43-32.70L212.93-33.92L211.90-27.65L211.90-27.65Q214.91-33.92 224.13-33.92L224.13-33.92L224.13-33.92Q228.61-33.92 230.50-32.03L230.50-32.03L230.50-32.03Q232.38-30.14 232.38-25.92L232.38-25.92L232.38-25.92Q232.38-21.95 230.34-12.67L230.34-12.67L230.34-12.67Q229.38-8.51 229.38-6.94L229.38-6.94L229.38-6.94Q229.38-5.38 230.24-4.48L230.24-4.48L230.24-4.48Q231.10-3.58 232.38-3.46L232.38-3.46L232.38-3.46Q231.74-1.28 229.54 0L229.54 0L229.54 0Q227.33 1.28 224.45 1.28ZM251.46 1.28L251.46 1.28L251.46 1.28Q237.38 1.28 237.38-11.97L237.38-11.97L237.38-11.97Q237.38-21.38 242.56-27.46L242.56-27.46L242.56-27.46Q248.06-33.92 257.60-33.92L257.60-33.92L257.60-33.92Q264.51-33.92 268.03-30.72L268.03-30.72L268.03-30.72Q271.55-27.52 271.55-20.80L271.55-20.80L271.55-20.80Q271.55-10.56 266.05-4.61L266.05-4.61L266.05-4.61Q260.67 1.28 251.46 1.28ZM253.12-26.56L253.12-26.56L253.12-26.56Q252.35-24.83 251.74-22.24L251.74-22.24L251.74-22.24Q251.14-19.65 250.37-15.55L250.37-15.55L250.37-15.55Q249.60-11.46 249.60-6.40L249.60-6.40L249.60-6.40Q249.60-4.74 250.14-3.65L250.14-3.65L250.14-3.65Q250.69-2.56 252.16-2.56L252.16-2.56L252.16-2.56Q253.63-2.56 254.56-3.26L254.56-3.26L254.56-3.26Q255.49-3.97 256.19-5.63L256.19-5.63L256.19-5.63Q257.47-8.58 258.50-14.05L258.50-14.05L258.50-14.05Q259.52-19.52 259.62-21.89L259.62-21.89L259.62-21.89Q259.71-24.26 259.71-26.02L259.71-26.02L259.71-26.02Q259.71-27.78 259.20-28.93L259.20-28.93L259.20-28.93Q258.69-30.08 257.25-30.08L257.25-30.08L257.25-30.08Q255.81-30.08 254.85-29.18L254.85-29.18L254.85-29.18Q253.89-28.29 253.12-26.56ZM294.46-22.46L294.46-22.46L294.46-22.46Q295.36-24.83 295.36-26.88L295.36-26.88L295.36-26.88Q295.36-30.66 292.29-30.66L292.29-30.66L292.29-30.66Q290.69-30.66 289.38-29.22L289.38-29.22L289.38-29.22Q288.06-27.78 288.06-25.98L288.06-25.98L288.06-25.98Q288.06-24.70 289.09-23.68L289.09-23.68L289.09-23.68Q290.56-22.27 294.34-19.97L294.34-19.97L294.34-19.97Q298.11-17.66 299.55-15.78L299.55-15.78L299.55-15.78Q300.99-13.89 300.99-11.30L300.99-11.30L300.99-11.30Q300.99-8.70 299.74-6.34L299.74-6.34L299.74-6.34Q298.50-3.97 296.26-2.30L296.26-2.30L296.26-2.30Q291.46 1.28 283.78 1.28L283.78 1.28L283.78 1.28Q279.62 1.28 276.42-0.90L276.42-0.90L276.42-0.90Q273.22-3.01 273.22-5.50L273.22-5.50L273.22-5.50Q273.22-8 275.04-9.47L275.04-9.47L275.04-9.47Q276.86-10.94 279.55-10.94L279.55-10.94L279.55-10.94Q282.24-10.94 283.90-9.92L283.90-9.92L283.90-9.92Q283.07-7.81 283.07-6.40L283.07-6.40L283.07-6.40Q283.07-2.18 286.66-2.18L286.66-2.18L286.66-2.18Q288.19-2.18 289.22-3.14L289.22-3.14L289.22-3.14Q290.24-4.10 290.24-5.76L290.24-5.76L290.24-5.76Q290.24-9.02 284.74-12.48L284.74-12.48L284.74-12.48Q280.26-15.42 279.23-16.58L279.23-16.58L279.23-16.58Q277.50-18.62 277.50-21.18L277.50-21.18L277.50-21.18Q277.50-23.74 278.72-26.18L278.72-26.18L278.72-26.18Q279.94-28.61 282.18-30.34L282.18-30.34L282.18-30.34Q286.85-33.92 294.98-33.92L294.98-33.92L294.98-33.92Q299.14-33.92 301.60-32.26L301.60-32.26L301.60-32.26Q304.06-30.59 304.06-27.78L304.06-27.78L304.06-27.78Q304.06-24.96 302.37-23.36L302.37-23.36L302.37-23.36Q300.67-21.76 297.60-21.76L297.60-21.76L297.60-21.76Q295.49-21.76 294.46-22.46Z" fill="url(#editing-shiny-gradient)"></path></g></g><g filter="url(#editing-shiny2)"><g transform="translate(97.71500611305237, 102.93499946594238)"><path d="M42.62-26.56L42.62-26.56L42.62-26.56Q42.62 0.70 13.06 0.70L13.06 0.70L13.06 0.70Q8.32 0.70 0.51-0.45L0.51-0.45L7.68-38.27L7.68-38.27Q8.19-40.83 8.51-42.30L8.51-42.30L8.51-42.30Q18.24-43.01 22.56-43.01L22.56-43.01L22.56-43.01Q26.88-43.01 30.85-42.11L30.85-42.11L30.85-42.11Q34.82-41.22 37.44-39.23L37.44-39.23L37.44-39.23Q42.62-35.33 42.62-26.56ZM29.44-28.93L29.44-28.93L29.44-28.93Q29.44-38.46 22.59-38.46L22.59-38.46L21.95-38.46L21.95-38.46Q21.63-38.46 21.31-38.40L21.31-38.40L14.72-4.03L14.72-4.03Q14.98-3.90 15.23-3.90L15.23-3.90L15.74-3.90L15.74-3.90Q18.11-3.90 20.58-5.38L20.58-5.38L20.58-5.38Q23.04-6.85 24.96-9.86L24.96-9.86L24.96-9.86Q29.44-16.83 29.44-28.93ZM65.02-22.46L65.02-22.46L65.02-22.46Q65.92-24.83 65.92-26.88L65.92-26.88L65.92-26.88Q65.92-30.66 62.85-30.66L62.85-30.66L62.85-30.66Q61.25-30.66 59.94-29.22L59.94-29.22L59.94-29.22Q58.62-27.78 58.62-25.98L58.62-25.98L58.62-25.98Q58.62-24.70 59.65-23.68L59.65-23.68L59.65-23.68Q61.12-22.27 64.90-19.97L64.90-19.97L64.90-19.97Q68.67-17.66 70.11-15.78L70.11-15.78L70.11-15.78Q71.55-13.89 71.55-11.30L71.55-11.30L71.55-11.30Q71.55-8.70 70.30-6.34L70.30-6.34L70.30-6.34Q69.06-3.97 66.82-2.30L66.82-2.30L66.82-2.30Q62.02 1.28 54.34 1.28L54.34 1.28L54.34 1.28Q50.18 1.28 46.98-0.90L46.98-0.90L46.98-0.90Q43.78-3.01 43.78-5.50L43.78-5.50L43.78-5.50Q43.78-8 45.60-9.47L45.60-9.47L45.60-9.47Q47.42-10.94 50.11-10.94L50.11-10.94L50.11-10.94Q52.80-10.94 54.46-9.92L54.46-9.92L54.46-9.92Q53.63-7.81 53.63-6.40L53.63-6.40L53.63-6.40Q53.63-2.18 57.22-2.18L57.22-2.18L57.22-2.18Q58.75-2.18 59.78-3.14L59.78-3.14L59.78-3.14Q60.80-4.10 60.80-5.76L60.80-5.76L60.80-5.76Q60.80-9.02 55.30-12.48L55.30-12.48L55.30-12.48Q50.82-15.42 49.79-16.58L49.79-16.58L49.79-16.58Q48.06-18.62 48.06-21.18L48.06-21.18L48.06-21.18Q48.06-23.74 49.28-26.18L49.28-26.18L49.28-26.18Q50.50-28.61 52.74-30.34L52.74-30.34L52.74-30.34Q57.41-33.92 65.54-33.92L65.54-33.92L65.54-33.92Q69.70-33.92 72.16-32.26L72.16-32.26L72.16-32.26Q74.62-30.59 74.62-27.78L74.62-27.78L74.62-27.78Q74.62-24.96 72.93-23.36L72.93-23.36L72.93-23.36Q71.23-21.76 68.16-21.76L68.16-21.76L68.16-21.76Q66.05-21.76 65.02-22.46ZM79.78-1.92L79.78-1.92L79.78-1.92Q78.27-3.58 77.60-6.21L77.60-6.21L77.60-6.21Q76.93-8.83 76.93-13.12L76.93-13.12L76.93-13.12Q76.93-17.41 78.40-21.31L78.40-21.31L78.40-21.31Q79.87-25.22 82.56-28.03L82.56-28.03L82.56-28.03Q88.06-33.92 97.15-33.92L97.15-33.92L97.15-33.92Q100.42-33.92 102.78-32.83L102.78-32.83L113.73-33.92L108.99-8.96L108.99-8.96Q108.80-8.19 108.80-6.78L108.80-6.78L108.80-6.78Q108.80-5.38 109.66-4.48L109.66-4.48L109.66-4.48Q110.53-3.58 111.81-3.46L111.81-3.46L111.81-3.46Q111.17-1.28 108.83 0L108.83 0L108.83 0Q106.50 1.28 103.87 1.28L103.87 1.28L103.87 1.28Q101.25 1.28 99.49 0.29L99.49 0.29L99.49 0.29Q97.73-0.70 97.22-2.37L97.22-2.37L97.22-2.37Q96.19-0.77 94.02 0.26L94.02 0.26L94.02 0.26Q91.84 1.28 88.93 1.28L88.93 1.28L88.93 1.28Q86.02 1.28 83.65 0.51L83.65 0.51L83.65 0.51Q81.28-0.26 79.78-1.92ZM93.28-27.90L93.28-27.90L93.28-27.90Q92.54-26.75 91.90-24.80L91.90-24.80L91.90-24.80Q91.26-22.85 90.21-17.63L90.21-17.63L90.21-17.63Q89.15-12.42 89.15-8.70L89.15-8.70L89.15-8.70Q89.15-4.99 89.73-3.90L89.73-3.90L89.73-3.90Q90.30-2.82 91.33-2.82L91.33-2.82L91.33-2.82Q93.38-2.82 94.88-4.77L94.88-4.77L94.88-4.77Q96.38-6.72 96.96-10.18L96.96-10.18L100.35-28.93L100.35-28.93Q99.01-30.08 97.44-30.08L97.44-30.08L97.44-30.08Q95.87-30.08 94.94-29.57L94.94-29.57L94.94-29.57Q94.02-29.06 93.28-27.90ZM137.54-7.23L137.54-7.23L137.54-7.23Q134.21-3.78 128.13-3.78L128.13-3.78L128.13-3.78Q120.51-3.78 118.91-9.34L118.91-9.34L118.91-9.34Q118.40-11.01 118.40-12.86L118.40-12.86L118.40-12.86Q118.40-14.72 118.78-16.64L118.78-16.64L121.79-32.64L134.78-33.92L131.26-15.30L131.26-15.30Q131.14-14.46 130.94-13.57L130.94-13.57L130.94-13.57Q130.75-12.67 130.75-11.74L130.75-11.74L130.75-11.74Q130.75-10.82 131.07-10.21L131.07-10.21L131.07-10.21Q131.39-9.60 131.84-9.22L131.84-9.22L131.84-9.22Q132.61-8.70 133.98-8.70L133.98-8.70L133.98-8.70Q135.36-8.70 136.54-10.37L136.54-10.37L136.54-10.37Q137.73-12.03 138.30-14.91L138.30-14.91L141.82-32.64L154.43-33.92L149.63-8.77L149.63-8.77Q147.26 3.52 142.40 8.38L142.40 8.38L142.40 8.38Q139.90 10.88 136.67 11.87L136.67 11.87L136.67 11.87Q133.44 12.86 129.28 12.86L129.28 12.86L129.28 12.86Q122.56 12.86 118.72 10.75L118.72 10.75L118.72 10.75Q114.88 8.64 114.88 5.12L114.88 5.12L114.88 5.12Q114.88 2.50 116.86 0.99L116.86 0.99L116.86 0.99Q118.85-0.51 121.92-0.51L121.92-0.51L121.92-0.51Q124.61-0.51 126.66 0.64L126.66 0.64L126.66 0.64Q127.87 1.34 128.45 2.24L128.45 2.24L128.45 2.24Q126.98 3.52 126.98 5.63L126.98 5.63L126.98 5.63Q126.98 8.45 129.54 8.45L129.54 8.45L129.54 8.45Q133.76 8.45 136.19-1.28L136.19-1.28L136.19-1.28Q136.90-4.16 137.54-7.23ZM177.28-2.69L177.28-2.69L177.28-2.69Q174.21 1.28 166.59 1.28L166.59 1.28L166.59 1.28Q162.62 1.28 159.74-1.12L159.74-1.12L159.74-1.12Q156.86-3.52 156.86-6.98L156.86-6.98L156.86-6.98Q156.86-8.90 157.06-9.86L157.06-9.86L161.34-32.64L174.34-33.92L169.66-9.22L169.66-9.22Q169.41-7.81 169.41-6.98L169.41-6.98L169.41-6.98Q169.41-3.26 171.65-3.26L171.65-3.26L171.65-3.26Q174.14-3.26 175.94-6.66L175.94-6.66L175.94-6.66Q176.51-7.74 176.77-9.15L176.77-9.15L181.31-32.64L193.92-33.92L189.18-8.96L189.18-8.96Q188.99-8 188.99-6.98L188.99-6.98L188.99-6.98Q188.99-5.95 189.57-4.83L189.57-4.83L189.57-4.83Q190.14-3.71 192-3.46L192-3.46L192-3.46Q191.62-1.92 190.27-0.90L190.27-0.90L190.27-0.90Q187.46 1.28 184.42 1.28L184.42 1.28L184.42 1.28Q181.38 1.28 179.58 0.19L179.58 0.19L179.58 0.19Q177.79-0.90 177.28-2.69ZM224.45 1.28L224.45 1.28L224.45 1.28Q216.70 1.28 216.70-4.74L216.70-4.74L216.70-4.74Q216.77-6.40 217.28-9.22L217.28-9.22L218.43-15.10L218.43-15.10Q220.16-23.42 220.16-25.28L220.16-25.28L220.16-25.28Q220.16-28.99 217.98-28.99L217.98-28.99L217.98-28.99Q214.34-28.99 212.42-19.46L212.42-19.46L208.64 0L195.78 1.28L202.43-32.70L212.93-33.92L211.90-27.65L211.90-27.65Q214.91-33.92 224.13-33.92L224.13-33.92L224.13-33.92Q228.61-33.92 230.50-32.03L230.50-32.03L230.50-32.03Q232.38-30.14 232.38-25.92L232.38-25.92L232.38-25.92Q232.38-21.95 230.34-12.67L230.34-12.67L230.34-12.67Q229.38-8.51 229.38-6.94L229.38-6.94L229.38-6.94Q229.38-5.38 230.24-4.48L230.24-4.48L230.24-4.48Q231.10-3.58 232.38-3.46L232.38-3.46L232.38-3.46Q231.74-1.28 229.54 0L229.54 0L229.54 0Q227.33 1.28 224.45 1.28ZM251.46 1.28L251.46 1.28L251.46 1.28Q237.38 1.28 237.38-11.97L237.38-11.97L237.38-11.97Q237.38-21.38 242.56-27.46L242.56-27.46L242.56-27.46Q248.06-33.92 257.60-33.92L257.60-33.92L257.60-33.92Q264.51-33.92 268.03-30.72L268.03-30.72L268.03-30.72Q271.55-27.52 271.55-20.80L271.55-20.80L271.55-20.80Q271.55-10.56 266.05-4.61L266.05-4.61L266.05-4.61Q260.67 1.28 251.46 1.28ZM253.12-26.56L253.12-26.56L253.12-26.56Q252.35-24.83 251.74-22.24L251.74-22.24L251.74-22.24Q251.14-19.65 250.37-15.55L250.37-15.55L250.37-15.55Q249.60-11.46 249.60-6.40L249.60-6.40L249.60-6.40Q249.60-4.74 250.14-3.65L250.14-3.65L250.14-3.65Q250.69-2.56 252.16-2.56L252.16-2.56L252.16-2.56Q253.63-2.56 254.56-3.26L254.56-3.26L254.56-3.26Q255.49-3.97 256.19-5.63L256.19-5.63L256.19-5.63Q257.47-8.58 258.50-14.05L258.50-14.05L258.50-14.05Q259.52-19.52 259.62-21.89L259.62-21.89L259.62-21.89Q259.71-24.26 259.71-26.02L259.71-26.02L259.71-26.02Q259.71-27.78 259.20-28.93L259.20-28.93L259.20-28.93Q258.69-30.08 257.25-30.08L257.25-30.08L257.25-30.08Q255.81-30.08 254.85-29.18L254.85-29.18L254.85-29.18Q253.89-28.29 253.12-26.56ZM294.46-22.46L294.46-22.46L294.46-22.46Q295.36-24.83 295.36-26.88L295.36-26.88L295.36-26.88Q295.36-30.66 292.29-30.66L292.29-30.66L292.29-30.66Q290.69-30.66 289.38-29.22L289.38-29.22L289.38-29.22Q288.06-27.78 288.06-25.98L288.06-25.98L288.06-25.98Q288.06-24.70 289.09-23.68L289.09-23.68L289.09-23.68Q290.56-22.27 294.34-19.97L294.34-19.97L294.34-19.97Q298.11-17.66 299.55-15.78L299.55-15.78L299.55-15.78Q300.99-13.89 300.99-11.30L300.99-11.30L300.99-11.30Q300.99-8.70 299.74-6.34L299.74-6.34L299.74-6.34Q298.50-3.97 296.26-2.30L296.26-2.30L296.26-2.30Q291.46 1.28 283.78 1.28L283.78 1.28L283.78 1.28Q279.62 1.28 276.42-0.90L276.42-0.90L276.42-0.90Q273.22-3.01 273.22-5.50L273.22-5.50L273.22-5.50Q273.22-8 275.04-9.47L275.04-9.47L275.04-9.47Q276.86-10.94 279.55-10.94L279.55-10.94L279.55-10.94Q282.24-10.94 283.90-9.92L283.90-9.92L283.90-9.92Q283.07-7.81 283.07-6.40L283.07-6.40L283.07-6.40Q283.07-2.18 286.66-2.18L286.66-2.18L286.66-2.18Q288.19-2.18 289.22-3.14L289.22-3.14L289.22-3.14Q290.24-4.10 290.24-5.76L290.24-5.76L290.24-5.76Q290.24-9.02 284.74-12.48L284.74-12.48L284.74-12.48Q280.26-15.42 279.23-16.58L279.23-16.58L279.23-16.58Q277.50-18.62 277.50-21.18L277.50-21.18L277.50-21.18Q277.50-23.74 278.72-26.18L278.72-26.18L278.72-26.18Q279.94-28.61 282.18-30.34L282.18-30.34L282.18-30.34Q286.85-33.92 294.98-33.92L294.98-33.92L294.98-33.92Q299.14-33.92 301.60-32.26L301.60-32.26L301.60-32.26Q304.06-30.59 304.06-27.78L304.06-27.78L304.06-27.78Q304.06-24.96 302.37-23.36L302.37-23.36L302.37-23.36Q300.67-21.76 297.60-21.76L297.60-21.76L297.60-21.76Q295.49-21.76 294.46-22.46Z" fill="url(#editing-shiny-gradient2)"></path></g></g><style>text {
  font-size: 64px;
  font-family: Arial Black;
  dominant-baseline: central;
  text-anchor: middle;
}</style></svg>